<svg width="22" height="26" viewBox="0 0 22 26" fill="none" xmlns="http://www.w3.org/2000/svg">
<path d="M17.2857 7.85714V6.28571C17.2857 2.81973 14.4659 0 11 0C7.53402 0 4.71429 2.81973 4.71429 6.28571V7.85714H0V21.2143C0 23.384 1.75887 25.1429 3.92857 25.1429H18.0714C20.2411 25.1429 22 23.384 22 21.2143V7.85714H17.2857ZM7.85714 6.28571C7.85714 4.55272 9.26701 3.14286 11 3.14286C12.733 3.14286 14.1429 4.55272 14.1429 6.28571V7.85714H7.85714V6.28571ZM15.7143 12.1786C15.0634 12.1786 14.5357 11.6509 14.5357 11C14.5357 10.3491 15.0634 9.82143 15.7143 9.82143C16.3652 9.82143 16.8929 10.3491 16.8929 11C16.8929 11.6509 16.3652 12.1786 15.7143 12.1786ZM6.28571 12.1786C5.6348 12.1786 5.10714 11.6509 5.10714 11C5.10714 10.3491 5.6348 9.82143 6.28571 9.82143C6.93663 9.82143 7.46429 10.3491 7.46429 11C7.46429 11.6509 6.93663 12.1786 6.28571 12.1786Z" fill="black"/>
</svg>
