<svg width="22" height="16" viewBox="0 0 22 16" fill="none" xmlns="http://www.w3.org/2000/svg">
<path d="M20.4286 0H1.57143C1.15466 0 0.754961 0.165561 0.460261 0.460261C0.165561 0.754961 0 1.15466 0 1.57143V14.1429C0 14.5596 0.165561 14.9593 0.460261 15.254C0.754961 15.5487 1.15466 15.7143 1.57143 15.7143H20.4286C20.8453 15.7143 21.245 15.5487 21.5397 15.254C21.8344 14.9593 22 14.5596 22 14.1429V1.57143C22 1.15466 21.8344 0.754961 21.5397 0.460261C21.245 0.165561 20.8453 0 20.4286 0V0ZM18.7 1.57143L11 6.89857L3.3 1.57143H18.7ZM1.57143 14.1429V2.28643L10.5521 8.50143C10.6837 8.59267 10.8399 8.64157 11 8.64157C11.1601 8.64157 11.3163 8.59267 11.4479 8.50143L20.4286 2.28643V14.1429H1.57143Z" fill="white"/>
</svg>
