<svg width="22" height="22" viewBox="0 0 22 22" fill="none" xmlns="http://www.w3.org/2000/svg">
<path d="M17.0115 21.5128C16.7973 21.5122 16.5839 21.4888 16.3748 21.4428C12.3931 20.6192 8.72493 18.688 5.79244 15.8715C2.92252 13.0488 0.932084 9.45498 0.0619434 5.52476C-0.0406571 5.03494 -0.0154749 4.52695 0.135067 4.04968C0.28561 3.5724 0.556445 3.1419 0.921518 2.79959L3.4684 0.348213C3.59849 0.22519 3.75306 0.130982 3.92202 0.0717368C4.09098 0.0124916 4.27053 -0.010459 4.44896 0.00438297C4.63396 0.0236839 4.8125 0.0832813 4.972 0.178984C5.13151 0.274687 5.26811 0.404171 5.3722 0.558331L8.55581 5.26371C8.6752 5.44628 8.73283 5.66236 8.72022 5.88014C8.70761 6.09792 8.62543 6.3059 8.48577 6.47348L6.8876 8.38364C7.5241 9.79236 8.4255 11.0656 9.54273 12.1339C10.6527 13.2411 11.9647 14.1251 13.4076 14.7381L15.3878 13.1654C15.5542 13.034 15.7565 12.9563 15.9681 12.9426C16.1796 12.929 16.3903 12.98 16.5721 13.089L21.3794 16.1962C21.5444 16.2947 21.6849 16.4293 21.7905 16.5898C21.8961 16.7503 21.964 16.9327 21.9891 17.1232C22.0142 17.3136 21.9959 17.5073 21.9355 17.6898C21.8751 17.8722 21.7743 18.0385 21.6404 18.1764L19.1572 20.6342C18.8752 20.9149 18.5404 21.137 18.1721 21.2878C17.8038 21.4386 17.4094 21.5151 17.0115 21.5128V21.5128ZM4.34708 1.26509L1.80019 3.71647C1.59482 3.90784 1.44279 4.14937 1.35906 4.4173C1.27533 4.68523 1.26279 4.97035 1.32265 5.2446C2.13175 8.93258 3.99161 12.3073 6.67748 14.961C9.43716 17.6107 12.8891 19.4272 16.6358 20.2012C16.9194 20.2605 17.2133 20.2485 17.4911 20.1662C17.7689 20.084 18.022 19.9341 18.2276 19.73L20.7108 17.2723L16.0691 14.2733L13.9425 15.967C13.8611 16.0314 13.7651 16.075 13.663 16.0938C13.5609 16.1127 13.4558 16.1063 13.3567 16.0752C11.5909 15.4246 9.99064 14.3919 8.67042 13.0508C7.30488 11.7756 6.24491 10.2085 5.56959 8.46642C5.54102 8.36095 5.54007 8.24991 5.56683 8.14397C5.59359 8.03804 5.64717 7.94077 5.7224 7.86153L7.44155 5.80492L4.34708 1.26509Z" fill="white"/>
</svg>
