<svg width="40" height="40" viewBox="0 0 40 40" fill="none" xmlns="http://www.w3.org/2000/svg">
<rect x="1" y="1" width="38" height="38" rx="19" stroke="#0F951D" stroke-width="2"/>
<path d="M19.8797 11.8887C20.1597 11.194 20.9397 10.4487 21.941 10.726C22.7277 10.9447 23.2384 11.4207 23.5317 12.0554C23.8037 12.646 23.8704 13.3407 23.8837 14.0047C23.897 14.7167 23.7477 15.5727 23.573 16.3207C23.4951 16.6518 23.4084 16.9808 23.313 17.3074H25.1597C25.5742 17.3073 25.983 17.4039 26.3536 17.5894C26.7242 17.775 27.0465 18.0443 27.2949 18.3762C27.5432 18.708 27.7108 19.0932 27.7843 19.5011C27.8578 19.909 27.8353 20.3284 27.7184 20.726L25.8997 26.9207C25.7748 27.3457 25.5664 27.7415 25.2868 28.085C25.0072 28.4286 24.6619 28.7129 24.2711 28.9215C23.8803 29.13 23.4518 29.2586 23.0108 29.2997C22.5698 29.3407 22.125 29.2935 21.7024 29.1607L14.561 26.918C14.1748 26.7968 13.8213 26.5893 13.5272 26.3111C13.2331 26.033 13.0062 25.6916 12.8637 25.3127L12.1704 23.4674C11.9497 22.8801 11.9432 22.2338 12.1519 21.6422C12.3607 21.0506 12.7714 20.5515 13.3117 20.2327L15.8077 18.7594C16.0592 18.5604 16.2926 18.3396 16.505 18.0994C16.9637 17.582 17.5944 16.7194 18.2277 15.374C18.501 14.7927 18.7304 14.334 18.9384 13.9207C19.2757 13.2487 19.5584 12.6887 19.8797 11.8887V11.8887ZM16.525 19.8834C16.5176 19.888 16.51 19.8924 16.5024 19.8967L13.989 21.382C13.7189 21.5414 13.5135 21.791 13.4092 22.0868C13.3048 22.3826 13.308 22.7057 13.4184 22.9994L14.1117 24.8447C14.183 25.0342 14.2966 25.205 14.4438 25.344C14.5909 25.4831 14.7678 25.5869 14.961 25.6474L22.0997 27.89C22.3534 27.9699 22.6206 27.9984 22.8854 27.9738C23.1503 27.9492 23.4076 27.872 23.6423 27.7467C23.877 27.6214 24.0843 27.4506 24.2521 27.2442C24.4199 27.0378 24.5449 26.8 24.6197 26.5447L26.437 20.35C26.4955 20.1512 26.5068 19.9414 26.47 19.7374C26.4332 19.5334 26.3493 19.3408 26.2251 19.1748C26.1008 19.0089 25.9396 18.8742 25.7542 18.7815C25.5688 18.6888 25.3643 18.6406 25.157 18.6407H22.4024C22.2957 18.6406 22.1906 18.615 22.0959 18.5659C22.0012 18.5168 21.9197 18.4457 21.8582 18.3586C21.7967 18.2715 21.7569 18.1708 21.7423 18.0652C21.7278 17.9595 21.7387 17.8519 21.7744 17.7514C21.9077 17.3754 22.1104 16.7247 22.2757 16.0167C22.4437 15.2994 22.5624 14.574 22.5517 14.03C22.5384 13.4047 22.473 12.942 22.321 12.6127C22.1904 12.3274 21.9864 12.122 21.585 12.0114C21.5277 11.9954 21.4597 11.9994 21.3717 12.0567C21.2568 12.1387 21.1687 12.2528 21.1184 12.3847C20.8113 13.1337 20.4709 13.8687 20.0984 14.5874C19.8917 14.998 19.6744 15.4327 19.4357 15.9407C18.7504 17.398 18.049 18.3687 17.5024 18.9834C17.2304 19.29 16.9984 19.5087 16.8277 19.654C16.741 19.7277 16.6512 19.7976 16.5584 19.8634L16.537 19.8767L16.5304 19.882L16.5264 19.8834H16.525Z" fill="#0F951D"/>
</svg>
