<svg width="18" height="21" viewBox="0 0 18 21" fill="none" xmlns="http://www.w3.org/2000/svg">
<path d="M14.1429 6.54378V5.23502C14.1429 2.3484 11.8358 0 9 0C6.1642 0 3.85714 2.3484 3.85714 5.23502V6.54378H0V17.6682C0 19.4752 1.43908 20.9401 3.21429 20.9401H14.7857C16.5609 20.9401 18 19.4752 18 17.6682V6.54378H14.1429ZM6.42857 5.23502C6.42857 3.79171 7.5821 2.61751 9 2.61751C10.4179 2.61751 11.5714 3.79171 11.5714 5.23502V6.54378H6.42857V5.23502ZM12.8571 10.1429C12.3246 10.1429 11.8929 9.7034 11.8929 9.16129C11.8929 8.61918 12.3246 8.17972 12.8571 8.17972C13.3897 8.17972 13.8214 8.61918 13.8214 9.16129C13.8214 9.7034 13.3897 10.1429 12.8571 10.1429ZM5.14286 10.1429C4.61029 10.1429 4.17857 9.7034 4.17857 9.16129C4.17857 8.61918 4.61029 8.17972 5.14286 8.17972C5.67542 8.17972 6.10714 8.61918 6.10714 9.16129C6.10714 9.7034 5.67542 10.1429 5.14286 10.1429Z" fill="white"/>
</svg>
