<svg width="80" height="123" viewBox="0 0 80 123" fill="none" xmlns="http://www.w3.org/2000/svg">
<path d="M45.6887 1.82879C29.1589 -3.68102 25.4762 4.77636 16.8438 7.30293C17.4754 8.21531 20.7481 9.95854 25.2656 11.935C32.0031 14.8826 34.1086 12.1455 40.8461 25.831C47.5836 39.5166 44.2148 45.4119 42.9515 52.781C41.6883 60.1502 38.5301 63.7294 38.5301 81.6259C38.5301 93.2079 44.8465 116.156 49.2679 121.84C55.5843 121.209 71.7449 110.639 77.9023 96.7853C82.9554 85.4158 77.6917 56.1498 74.5336 42.0431C70.2271 22.8076 58.3215 6.03964 45.6887 1.82879Z" fill="#3F221E"/>
<path d="M1.06695 38.885C1.06694 15.0932 11.103 8.77678 17.2791 7.09241C21.49 9.40842 25.8906 12.3377 29.4907 15.5143C36.6493 21.8307 37.9968 29.6209 38.7548 39.7271C39.3271 47.3582 31.2315 65.4138 32.4384 87.9423C33.0701 99.733 42.9657 109.839 49.4927 121.84C32.4384 124.577 14.3314 122.683 7.17278 99.3119C-3.77564 76.1517 1.06695 51.0967 1.06695 38.885Z" fill="#663B34"/>
<path d="M33.09 22.9672C29.8174 17.1142 22.3848 11.5912 19.5809 10.2505C32.6369 9.44175 40.8873 20.25 43.3982 26.3623C45.5745 31.6602 46.8121 38.7934 44.8057 52.2633C43.8871 58.4304 40.137 66.5685 39.2803 72.2511C38.4351 77.8569 39.2409 87.621 40.2764 94.3612C41.0476 99.3806 46.0493 115.098 47.7942 118.893C43.5994 112.566 38.7686 107.622 34.1582 99.1881C31.2243 93.8212 31.0383 84.2312 31.4761 77.7054C32.088 68.5847 37.0139 52.875 37.4522 46.1386C37.8906 39.4022 36.8626 29.7144 33.09 22.9672Z" fill="#BA9569"/>
</svg>
