<svg width="139" height="27" viewBox="0 0 139 27" fill="none" xmlns="http://www.w3.org/2000/svg">
<path d="M8.27891 26.5479C6.99505 26.5479 5.89382 26.3929 4.9752 26.083C4.05658 25.7842 3.29291 25.3083 2.68418 24.6553C2.06439 23.9912 1.59955 23.1279 1.28965 22.0654C0.990822 20.9919 0.841408 19.6969 0.841408 18.1807C0.841408 16.4652 1.04063 14.6777 1.43906 12.8184C1.90391 10.6602 2.56797 8.72884 3.43125 7.02441C4.43841 5.04329 5.66139 3.49935 7.1002 2.39258C8.73822 1.13086 10.6087 0.5 12.7115 0.5C14.4049 0.5 15.7496 0.854167 16.7457 1.5625C17.8414 2.33724 18.3893 3.49935 18.3893 5.04883C18.3893 6.02279 18.2122 6.76986 17.858 7.29004C17.4374 7.8877 16.8176 8.18652 15.9986 8.18652C15.6555 8.18652 15.318 8.12565 14.9859 8.00391C14.665 7.88216 14.3606 7.64974 14.0729 7.30664C14.2721 7.20703 14.4658 7.05208 14.6539 6.8418C14.8421 6.62044 15.0081 6.36589 15.152 6.07812C15.4729 5.4362 15.6334 4.7998 15.6334 4.16895C15.6334 3.56022 15.4785 3.07878 15.1686 2.72461C14.8033 2.30404 14.2665 2.09375 13.5582 2.09375C12.9495 2.09375 12.3463 2.32064 11.7486 2.77441C11.162 3.21712 10.5976 3.84798 10.0553 4.66699C9.53509 5.4528 9.05365 6.37142 8.61094 7.42285C8.16823 8.47428 7.79193 9.59212 7.48203 10.7764C7.17214 11.9717 6.92865 13.1891 6.75156 14.4287C6.57448 15.6683 6.48594 16.8525 6.48594 17.9814C6.48594 18.8226 6.54681 19.5586 6.66856 20.1895C6.80137 20.8203 7.01166 21.3571 7.29942 21.7998C7.93027 22.7848 9.02044 23.2773 10.5699 23.2773C11.898 23.2773 13.1321 22.984 14.2721 22.3975C15.412 21.7998 16.386 20.9587 17.1939 19.874L17.9742 20.2227C17.5426 21.3073 16.9449 22.2591 16.1813 23.0781C15.4286 23.8861 14.5764 24.5557 13.6246 25.0869C12.7503 25.5739 11.8482 25.9391 10.9186 26.1826C9.98887 26.4261 9.10899 26.5479 8.27891 26.5479ZM32.5982 26.1328C30.9159 26.1328 29.6155 25.7233 28.6968 24.9043C27.6675 23.9967 27.1529 22.6188 27.1529 20.7705C27.1529 20.0732 27.2248 19.304 27.3687 18.4629C27.5126 17.6107 27.7339 16.7529 28.0328 15.8896C28.719 13.8311 29.6985 12.1875 30.9713 10.959C32.5097 9.45378 34.3414 8.70117 36.4664 8.70117C39.3772 8.70117 40.8326 10.5107 40.8326 14.1299V14.1631C40.899 14.1852 40.9543 14.1963 40.9986 14.1963H41.1978C41.9504 14.1963 42.8414 13.986 43.8707 13.5654C44.7782 13.1891 45.636 12.7188 46.4439 12.1543L46.7427 13.084C46.0787 13.7812 45.2209 14.3734 44.1695 14.8604C43.1291 15.3473 41.9781 15.696 40.7164 15.9062C40.5836 17.4447 40.2847 18.8503 39.8199 20.123C39.355 21.3848 38.7574 22.4694 38.0269 23.377C37.3075 24.2624 36.483 24.943 35.5533 25.4189C34.6236 25.8949 33.6386 26.1328 32.5982 26.1328ZM33.9595 23.0781C34.358 23.0781 34.7619 22.901 35.1714 22.5469C35.592 22.1816 35.9849 21.6781 36.3502 21.0361C36.7154 20.3942 37.0308 19.6416 37.2964 18.7783C37.5621 17.915 37.7613 16.9909 37.8941 16.0059C37.5621 15.9173 37.3241 15.7513 37.1802 15.5078C37.0474 15.2643 36.981 14.9544 36.981 14.5781C36.981 14.1133 37.0751 13.7259 37.2632 13.416C37.4514 13.1061 37.7115 12.8792 38.0435 12.7354C37.9992 12.016 37.883 11.5013 37.6949 11.1914C37.5953 11.0365 37.468 10.9258 37.313 10.8594C37.1692 10.793 36.981 10.7598 36.7486 10.7598C35.9849 10.7598 35.2379 11.3353 34.5074 12.4863C33.8323 13.5267 33.2789 14.8105 32.8472 16.3379C32.4267 17.832 32.2164 19.1602 32.2164 20.3223C32.2164 20.8867 32.244 21.346 32.2994 21.7002C32.3658 22.0544 32.4709 22.3311 32.6148 22.5303C32.7476 22.7295 32.9192 22.8734 33.1295 22.9619C33.3397 23.0394 33.6164 23.0781 33.9595 23.0781ZM56.9839 26.1992C56.1649 26.1992 55.44 26.0775 54.8091 25.834C54.1782 25.5794 53.647 25.2308 53.2154 24.7881C52.8169 24.3786 52.5181 23.9248 52.3189 23.4268C52.1197 22.9176 52.02 22.3919 52.02 21.8496C52.02 21.1081 52.2082 20.4385 52.5845 19.8408C52.9165 19.3096 53.3316 18.9277 53.8296 18.6953C54.715 17.1237 55.4842 15.5299 56.1372 13.9141C56.7902 12.2982 57.4156 10.5329 58.0132 8.61816L63.0435 7.9541C63.1763 10.8317 63.298 13.0397 63.4087 14.5781C63.5194 16.1608 63.6135 17.3229 63.6909 18.0645C63.7573 18.9277 63.7906 19.6803 63.7906 20.3223C63.7906 20.8978 63.7463 21.3294 63.6577 21.6172C64.676 21.0195 65.4894 20.4495 66.0982 19.9072H67.5259C66.718 20.848 65.8823 21.6559 65.0191 22.3311C64.1669 23.0062 63.2704 23.6149 62.3296 24.1572C61.6545 24.8656 60.8078 25.3913 59.7896 25.7344C58.9042 26.0443 57.9689 26.1992 56.9839 26.1992ZM55.9048 23.5098C56.757 23.5098 57.4377 23.2773 57.9468 22.8125C58.5555 22.2591 58.8599 21.4401 58.8599 20.3555C58.8599 19.9017 58.8322 19.3317 58.7769 18.6455L58.6939 17.6328C58.5943 16.7585 58.4947 15.7458 58.395 14.5947L58.2124 12.3037C57.8915 13.333 57.5096 14.3568 57.0669 15.375C56.6242 16.3822 56.0874 17.5 55.4566 18.7285C55.9767 19.0163 56.2368 19.4092 56.2368 19.9072C56.2368 20.3499 56.104 20.7318 55.8384 21.0527C55.5506 21.4069 55.1854 21.584 54.7427 21.584C54.5213 21.584 54.3332 21.5563 54.1782 21.501C54.0344 21.4346 53.9182 21.3128 53.8296 21.1357C53.8296 21.9548 53.9901 22.5579 54.3111 22.9453C54.632 23.3216 55.1633 23.5098 55.9048 23.5098ZM80.0083 26.1992C78.9237 26.1992 78.0659 25.8783 77.435 25.2363C76.7267 24.528 76.3725 23.4932 76.3725 22.1318C76.3725 21.4899 76.4611 20.7484 76.6382 19.9072L78.6802 10.3613H77.5513L77.8335 9H78.9458L79.9751 4.30176L85.0054 3.62109L83.8432 9H85.8852L85.6196 10.3613H83.5776L81.4028 20.5547C81.3143 20.8424 81.27 21.2077 81.27 21.6504C81.27 22.1152 81.3751 22.4417 81.5854 22.6299C81.8068 22.818 82.161 22.9121 82.6479 22.9121C82.98 22.9121 83.3009 22.8402 83.6108 22.6963C83.9318 22.5413 84.2251 22.3311 84.4907 22.0654C85.033 21.5231 85.4425 20.8037 85.7192 19.9072H87.147C86.5382 21.6227 85.7746 22.9896 84.8559 24.0078C84.0812 24.8379 83.2069 25.4355 82.2329 25.8008C81.5246 26.0664 80.783 26.1992 80.0083 26.1992ZM101.14 26.1992C99.4689 26.1992 98.1795 25.7786 97.2719 24.9375C96.309 24.041 95.8276 22.6631 95.8276 20.8037C95.8276 20.1064 95.8995 19.3317 96.0434 18.4795C96.1762 17.6162 96.3865 16.7585 96.6743 15.9062C97.3494 13.8366 98.3067 12.1875 99.5463 10.959C101.074 9.45378 102.883 8.70117 104.975 8.70117C106.336 8.70117 107.344 9.02767 107.997 9.68066C108.506 10.2008 108.76 10.9147 108.76 11.8223C108.76 12.6191 108.583 13.2389 108.229 13.6816C107.897 14.0911 107.471 14.2959 106.951 14.2959C106.574 14.2959 106.176 14.1631 105.755 13.8975C106.032 13.1781 106.17 12.5085 106.17 11.8887C106.17 11.457 106.087 11.1195 105.921 10.876C105.766 10.6214 105.534 10.4941 105.224 10.4941C104.56 10.4941 103.868 11.0807 103.149 12.2539C102.496 13.2943 101.954 14.6169 101.522 16.2217C101.079 17.7933 100.858 19.2155 100.858 20.4883C100.858 21.5951 101.068 22.3587 101.489 22.7793C101.854 23.1556 102.463 23.3438 103.315 23.3438C104.543 23.3438 105.667 23.0117 106.685 22.3477C107.117 22.071 107.532 21.7445 107.93 21.3682C108.329 20.9808 108.793 20.4938 109.325 19.9072H110.487C109.413 21.7223 108.179 23.1667 106.785 24.2402C105.069 25.5462 103.188 26.1992 101.14 26.1992ZM124.829 26.1328C123.146 26.1328 121.846 25.7233 120.927 24.9043C119.898 23.9967 119.383 22.6188 119.383 20.7705C119.383 20.0732 119.455 19.304 119.599 18.4629C119.743 17.6107 119.964 16.7529 120.263 15.8896C120.949 13.8311 121.929 12.1875 123.202 10.959C124.74 9.45378 126.572 8.70117 128.697 8.70117C131.607 8.70117 133.063 10.5107 133.063 14.1299V14.1631C133.129 14.1852 133.185 14.1963 133.229 14.1963H133.428C134.181 14.1963 135.072 13.986 136.101 13.5654C137.009 13.1891 137.866 12.7188 138.674 12.1543L138.973 13.084C138.309 13.7812 137.451 14.3734 136.4 14.8604C135.359 15.3473 134.208 15.696 132.947 15.9062C132.814 17.4447 132.515 18.8503 132.05 20.123C131.585 21.3848 130.988 22.4694 130.257 23.377C129.538 24.2624 128.713 24.943 127.784 25.4189C126.854 25.8949 125.869 26.1328 124.829 26.1328ZM126.19 23.0781C126.588 23.0781 126.992 22.901 127.402 22.5469C127.822 22.1816 128.215 21.6781 128.58 21.0361C128.946 20.3942 129.261 19.6416 129.527 18.7783C129.792 17.915 129.992 16.9909 130.124 16.0059C129.792 15.9173 129.554 15.7513 129.411 15.5078C129.278 15.2643 129.211 14.9544 129.211 14.5781C129.211 14.1133 129.305 13.7259 129.494 13.416C129.682 13.1061 129.942 12.8792 130.274 12.7354C130.23 12.016 130.113 11.5013 129.925 11.1914C129.826 11.0365 129.698 10.9258 129.543 10.8594C129.399 10.793 129.211 10.7598 128.979 10.7598C128.215 10.7598 127.468 11.3353 126.738 12.4863C126.063 13.5267 125.509 14.8105 125.078 16.3379C124.657 17.832 124.447 19.1602 124.447 20.3223C124.447 20.8867 124.474 21.346 124.53 21.7002C124.596 22.0544 124.701 22.3311 124.845 22.5303C124.978 22.7295 125.149 22.8734 125.36 22.9619C125.57 23.0394 125.847 23.0781 126.19 23.0781Z" fill="#5A4CBF"/>
</svg>
