<svg width="80" height="100" viewBox="0 0 80 100" fill="none" xmlns="http://www.w3.org/2000/svg">
<path d="M48.4834 6.47865L48.8894 0.185496C27.7768 -1.43859 22.7017 8.10264 21.0777 9.32069C14.9875 11.9597 6.86731 22.719 6.2583 25.1551C4.63426 26.5761 1.04624 30.8589 0.574181 36.5234C0.168159 41.3955 -0.237831 53.5758 0.168179 65.1471C0.574189 76.7183 9.50642 88.4926 12.3485 91.3347C17.8917 96.8779 25.4761 97.2219 28.3859 97.0189L30.8219 92.1468L30.4159 91.7408L36.3031 80.1695L39.7541 61.087L38.7391 40.5835L45.2353 22.516L48.4834 6.47865Z" fill="#603B1E"/>
<path d="M32.4808 87.9012L28.0146 96.8334C41.819 101.706 47.1198 99.5845 53.3903 98.2544C60.0894 96.8334 66.3826 91.7583 71.6607 85.6681C76.7496 79.7963 79.9839 69.6307 79.5779 57.2474C79.4012 51.8563 82.217 36.9469 75.3148 20.5035C69.6307 6.96188 54.6083 0.473678 48.5182 0L48.1121 6.29316V13.6013L41.819 31.4658L39.9919 61.5105L32.4808 87.9012Z" fill="#362013"/>
<path d="M42.022 21.1125C44.017 17.2554 43.037 14.4133 46.8941 3.24805C47.8415 4.53375 50.1828 8.40437 50.3452 11.9773C50.5482 16.4434 49.9392 18.4734 49.5332 20.7065C49.1272 22.9395 45.0671 29.8417 44.2551 30.8567C43.443 31.8718 42.022 37.1499 42.022 40.398C42.022 43.646 42.631 52.1723 42.631 57.0444C42.631 64.9616 41.819 70.0367 39.7889 78.5629C38.1649 85.3839 31.5334 91.6906 28.0146 94.3973C33.0898 76.1268 35.488 71.1138 36.5409 63.7435C37.7589 55.2173 36.9469 45.4881 36.9469 39.992C36.9469 25.3756 39.5721 25.849 42.022 21.1125Z" fill="#C19975"/>
</svg>
